/* XPM */
static const char * flag_ua_xpm[] = {
"30 20 2 1",
" 	c #0011FF",
".	c #FFFF00",
"                              ",
"                              ",
"                              ",
"                              ",
"                              ",
"                              ",
"                              ",
"                              ",
"                              ",
"                              ",
"                              ",
"..............................",
"..............................",
"..............................",
"..............................",
"..............................",
"..............................",
"..............................",
"..............................",
".............................."};
