/* XPM */
static const char * iceBw_icon_xpm[] = {
"16 16 5 1",
" 	c None",
".	c #0089D0",
"+	c #FFFFFF",
"@	c #E2F4FE",
"#	c #ABE1FA",
"      ...       ",
"      .+.       ",
"    ...+...     ",
"    .+.+.+.     ",
"  ...+.+.+...   ",
"  .+.+.+.+.+.   ",
"  .+.+.+.+.+.   ",
"  .+.+.+.+.+.   ",
"  .+.+.+.+.+.   ",
"  .+.+.@.+.+.   ",
"  .+.+.#.+.+.   ",
"  .+.@...@.+.   ",
"  .+.#. .#.+.   ",
"  .@... ...@.   ",
"  .#.     .#.   ",
"  ...     ...   "};
