/* XPM */
static char * flag_xpm[] = {
"30 20 311 2",
"  	c None",
". 	c #DFDCD4",
"+ 	c #FFFFFF",
"@ 	c #FEFEFE",
"# 	c #FAF9FF",
"$ 	c #BBB25F",
"% 	c #FBFAF1",
"& 	c #EFECE6",
"* 	c #FBFAF9",
"= 	c #F7F6F3",
"- 	c #FCFCFC",
"; 	c #877A19",
"> 	c #635B1F",
", 	c #AAA078",
"' 	c #F3F1ED",
") 	c #EDEAD7",
"! 	c #DCD9CC",
"~ 	c #988D59",
"{ 	c #8B801D",
"] 	c #E6DCDB",
"^ 	c #C4BEAB",
"/ 	c #878230",
"( 	c #7E750E",
"_ 	c #BBB2A7",
": 	c #FCFDFF",
"< 	c #A69B84",
"[ 	c #CBC7B6",
"} 	c #9E944A",
"| 	c #A49A86",
"1 	c #E3DCAD",
"2 	c #C9C39D",
"3 	c #A29C77",
"4 	c #C5BE5F",
"5 	c #A19253",
"6 	c #918A51",
"7 	c #786E38",
"8 	c #D0CAC6",
"9 	c #B6AD79",
"0 	c #C6C2A7",
"a 	c #ADA27B",
"b 	c #BAB28E",
"c 	c #58501B",
"d 	c #E7E1E4",
"e 	c #CDC6B7",
"f 	c #968D1E",
"g 	c #AAA050",
"h 	c #E7E4D4",
"i 	c #BDB585",
"j 	c #CECB03",
"k 	c #F0ECE7",
"l 	c #DED4A6",
"m 	c #EFEAC5",
"n 	c #A59D19",
"o 	c #ACA90C",
"p 	c #99920C",
"q 	c #EDE9E8",
"r 	c #A79C88",
"s 	c #A8A108",
"t 	c #A9A50B",
"u 	c #B2A645",
"v 	c #FFFFF3",
"w 	c #CDC398",
"x 	c #D2C880",
"y 	c #B8B24F",
"z 	c #E6E1CB",
"A 	c #0E0BD4",
"B 	c #0000FF",
"C 	c #0000FE",
"D 	c #0002FF",
"E 	c #939040",
"F 	c #A29B28",
"G 	c #A49D18",
"H 	c #0B0BF8",
"I 	c #5C5B90",
"J 	c #7F762C",
"K 	c #9B9014",
"L 	c #A59D0A",
"M 	c #67636E",
"N 	c #1615E5",
"O 	c #B8B009",
"P 	c #A69E0B",
"Q 	c #918917",
"R 	c #686488",
"S 	c #2626D0",
"T 	c #4541A3",
"U 	c #BFB90C",
"V 	c #C0BE1D",
"W 	c #2625C2",
"X 	c #0809F8",
"Y 	c #AAA419",
"Z 	c #BCB707",
"` 	c #918A10",
" .	c #9C9427",
"..	c #3E3DB7",
"+.	c #0B0BF1",
"@.	c #0505FB",
"#.	c #99932A",
"$.	c #A99F07",
"%.	c #676282",
"&.	c #9E930B",
"*.	c #211ED6",
"=.	c #0505F9",
"-.	c #0C0CED",
";.	c #5F596A",
">.	c #918C17",
",.	c #A9A30D",
"'.	c #B3B018",
").	c #3A38A0",
"!.	c #454092",
"~.	c #A5A11C",
"{.	c #B9B309",
"].	c #9C9710",
"^.	c #B2AD0A",
"/.	c #C9C703",
"(.	c #2423D9",
"_.	c #0303FB",
":.	c #69635D",
"<.	c #B1AB07",
"[.	c #A49C11",
"}.	c #918D11",
"|.	c #1A18DE",
"1.	c #8F8955",
"2.	c #A09B0C",
"3.	c #B8B509",
"4.	c #ABA40B",
"5.	c #A9A211",
"6.	c #605F72",
"7.	c #3733A4",
"8.	c #C4C001",
"9.	c #B1AB0A",
"0.	c #A09A10",
"a.	c #9C910D",
"b.	c #C3BF09",
"c.	c #3537C4",
"d.	c #706572",
"e.	c #B17114",
"f.	c #AA7812",
"g.	c #B07414",
"h.	c #AE7314",
"i.	c #735F71",
"j.	c #3C39B6",
"k.	c #C1BD29",
"l.	c #908A16",
"m.	c #ADA809",
"n.	c #A1980D",
"o.	c #BBB70A",
"p.	c #7E773E",
"q.	c #201FE3",
"r.	c #A59D1D",
"s.	c #B2AE0A",
"t.	c #989113",
"u.	c #A69F0D",
"v.	c #C4C109",
"w.	c #797877",
"x.	c #BA9928",
"y.	c #C12C3C",
"z.	c #6F5DA6",
"A.	c #8D5349",
"B.	c #B6797D",
"C.	c #DB6613",
"D.	c #7E8071",
"E.	c #B0AD34",
"F.	c #928A0D",
"G.	c #AEA90B",
"H.	c #B3AA09",
"I.	c #B4B20B",
"J.	c #726B61",
"K.	c #0102FF",
"L.	c #6D662B",
"M.	c #C3C008",
"N.	c #9C930C",
"O.	c #8D8713",
"P.	c #9A9511",
"Q.	c #A09A0B",
"R.	c #AE850F",
"S.	c #E6444C",
"T.	c #B14E45",
"U.	c #91908B",
"V.	c #A64F4A",
"W.	c #BC4525",
"X.	c #A9AC07",
"Y.	c #9C970F",
"Z.	c #ADA70A",
"`.	c #877E17",
" +	c #B7B30A",
".+	c #B6B20C",
"++	c #1D1BD4",
"@+	c #4B4781",
"#+	c #978D1E",
"$+	c #AFAB0C",
"%+	c #A5A010",
"&+	c #7D7618",
"*+	c #ADAA0E",
"=+	c #A97D1C",
"-+	c #B25F5E",
";+	c #E6CCC6",
">+	c #B6A8AA",
",+	c #B48B89",
"'+	c #C06A2B",
")+	c #9C9B16",
"!+	c #8B8316",
"~+	c #8F8814",
"{+	c #A39D11",
"]+	c #A59E12",
"^+	c #4E4B88",
"/+	c #847852",
"(+	c #87824B",
"_+	c #ADA429",
":+	c #847C47",
"<+	c #676481",
"[+	c #65417B",
"}+	c #CD2225",
"|+	c #9F3B3F",
"1+	c #B24742",
"2+	c #CC3237",
"3+	c #CB5012",
"4+	c #181EE3",
"5+	c #B4AD00",
"6+	c #ADA31B",
"7+	c #8F8847",
"8+	c #2F2DBD",
"9+	c #3B3AB1",
"0+	c #1513ED",
"a+	c #0B0AF1",
"b+	c #0203FF",
"c+	c #3B39A6",
"d+	c #A48225",
"e+	c #B8291F",
"f+	c #300F0D",
"g+	c #170302",
"h+	c #813928",
"i+	c #AE6711",
"j+	c #5D5977",
"k+	c #2828CB",
"l+	c #0304F3",
"m+	c #0A0AEF",
"n+	c #0504F9",
"o+	c #544E96",
"p+	c #201DDE",
"q+	c #B2AC06",
"r+	c #99940E",
"s+	c #706D5C",
"t+	c #A3A00E",
"u+	c #AB7A13",
"v+	c #80783B",
"w+	c #9A9121",
"x+	c #9B960C",
"y+	c #9D951E",
"z+	c #7A724D",
"A+	c #565499",
"B+	c #C40A1D",
"C+	c #DE0020",
"D+	c #DE0021",
"E+	c #A75A22",
"F+	c #AE293F",
"G+	c #C51C3A",
"H+	c #9D7637",
"I+	c #A7A311",
"J+	c #AD1E42",
"K+	c #AB881D",
"L+	c #9E9C13",
"M+	c #CB2041",
"N+	c #A17B34",
"O+	c #9D891E",
"P+	c #C5492B",
"Q+	c #9D493C",
"R+	c #89860C",
"S+	c #908A06",
"T+	c #C5162B",
"U+	c #DF0A02",
"V+	c #FF0000",
"W+	c #FE0000",
"X+	c #D23D12",
"Y+	c #99A40C",
"Z+	c #C77D26",
"`+	c #B9732D",
" @	c #CF6722",
".@	c #C4673D",
"+@	c #8F8E22",
"@@	c #7E741E",
"#@	c #A69144",
"$@	c #C05926",
"%@	c #C7822E",
"&@	c #D0581E",
"*@	c #BE8221",
"=@	c #B5B814",
"-@	c #B77C1F",
";@	c #FC0204",
">@	c #FE0306",
",@	c #9B5C1D",
"'@	c #F0191C",
")@	c #B64E26",
"!@	c #D2D208",
"~@	c #A67746",
"{@	c #AEA23D",
"]@	c #C8C514",
"^@	c #C09D10",
"/@	c #C9B712",
"(@	c #C4B31A",
"_@	c #F9080A",
":@	c #F31215",
"<@	c #FA0303",
"[@	c #FB0606",
"}@	c #C4752B",
"|@	c #A7A621",
"1@	c #9F9F11",
"2@	c #B7821F",
"3@	c #C5C518",
"4@	c #B9B50C",
"5@	c #C0C70F",
"6@	c #AC9436",
". + + + + + + + + + + + + + @ @ + + + + + + + + + + + + + + ",
". + + + + + + + + + + + @ + # $ + @ + + + + + + + + + + + + ",
". + + + + + + @ + % & * = - ; > , + ' + ) + @ + + + + + + + ",
". + + + + + @ @ ! ~ { ] ^ @ / ( _ : < [ } | + @ + + + + + + ",
". + + + + + 1 2 3 4 5 6 7 8 9 0 a b c d e f + g + + + + + + ",
"h + + + + + i j k l m n o p q + r s t u v w x y z + + + + + ",
"A B B B C D E F G H I J K L M N O P Q R S T U V W B B B B B ",
"A B B B B X Y Z `  ...+.@.#.$.%.&.*.=.-.;.>.,.'.).B B B B B ",
"A B B B C !.~.{.].^./.(._.:.<.[.}.|.B 1.2.3.4.5.6.B B B B B ",
"A B B B B 7.8.9.0.a.b.c.d.e.f.g.h.i.j.k.l.m.n.o.p.B B B B B ",
"A B B B B q.r.s.t.u.v.w.x.y.z.A.B.C.D.E.F.G.H.I.J.B B B B B ",
"A B B B B K.L.M.N.O.P.Q.R.S.T.U.V.W.X.Y.Z.`. +.+++C B B B B ",
"A B B B B B @+#+$+%+&+*+=+-+;+>+,+'+)+!+~+{+]+^+B B B B B B ",
"A B B B B C B /+(+_+:+<+[+}+|+1+2+3+4+5+6+7+8+B C B B B B B ",
"A B B B B B B 9+0+a+b+c+d+e+f+g+h+i+j+k+l+m+n+B B B B B B B ",
"A C C C C C C C o+B p+q+r+s+t+u+v+w+x+y+B z+A+B C C C C C C ",
"B+C+C+C+C+D+D+D+E+F+G+H+I+J+K+L+M+N+O+P+Q+R+S+T+D+D+C+C+C+C+",
"U+V+V+V+V+V+V+W+X+Y+Z+`+ @.@+@@@#@$@%@&@*@=@-@;@V+V+V+V+V+V+",
"U+V+V+V+V+V+V+V+>@,@'@)@!@~@{@]@^@/@(@V+_@:@V+W+V+V+V+V+V+V+",
"U+V+V+V+V+V+V+V+V+<@[@}@|@1@2@3@4@5@6@V+V+V+W+V+V+V+V+V+V+V+"};
